<svg width="37" height="37" viewBox="0 0 37 37" fill="none" xmlns="http://www.w3.org/2000/svg">
<g id="fluent:emoji-laugh-24-regular">
<path id="Vector" d="M10.4062 18.5C10.2453 18.4998 10.0862 18.5331 9.93903 18.5979C9.79182 18.6626 9.65973 18.7573 9.5512 18.876C9.44268 18.9947 9.3601 19.1347 9.30876 19.2871C9.25741 19.4395 9.23842 19.601 9.253 19.7611C9.68467 24.5002 13.1843 28.5209 18.4999 28.5209C23.8156 28.5209 27.3136 24.5002 27.7468 19.7611C27.7614 19.601 27.7424 19.4395 27.6911 19.2871C27.6397 19.1347 27.5572 18.9947 27.4486 18.876C27.3401 18.7573 27.208 18.6626 27.0608 18.5979C26.9136 18.5331 26.7545 18.4998 26.5937 18.5H10.4046H10.4062ZM18.4999 26.2084C15.0204 26.2084 12.5321 23.9267 11.7659 20.8125H25.2339C24.4693 23.9267 21.981 26.2084 18.4999 26.2084ZM23.5103 13.4896C22.8813 13.4896 22.4158 13.9321 22.3418 14.43C22.2968 14.7334 22.1331 15.0065 21.8868 15.1892C21.6405 15.372 21.3316 15.4493 21.0283 15.4044C20.7249 15.3594 20.4518 15.1957 20.2691 14.9494C20.0863 14.7031 20.0089 14.3943 20.0539 14.0909C20.3037 12.4105 21.7852 11.1771 23.5103 11.1771C25.2355 11.1771 26.717 12.4105 26.9668 14.0909C27.0117 14.3943 26.9343 14.7031 26.7516 14.9494C26.5689 15.1957 26.2958 15.3594 25.9924 15.4044C25.689 15.4493 25.3802 15.372 25.1339 15.1892C24.8875 15.0065 24.7239 14.7334 24.6789 14.43C24.6049 13.9321 24.1393 13.4896 23.5103 13.4896ZM12.3209 14.43C12.3949 13.9321 12.8605 13.4896 13.4895 13.4896C14.12 13.4896 14.5841 13.9321 14.6581 14.43C14.7031 14.7334 14.8667 15.0065 15.113 15.1892C15.3594 15.372 15.6682 15.4493 15.9716 15.4044C16.275 15.3594 16.5481 15.1957 16.7308 14.9494C16.9135 14.7031 16.9909 14.3943 16.9459 14.0909C16.6977 12.4105 15.2146 11.1771 13.4895 11.1771C11.7644 11.1771 10.2828 12.4105 10.0331 14.0909C9.98811 14.3943 10.0655 14.7031 10.2482 14.9494C10.4309 15.1957 10.704 15.3594 11.0074 15.4044C11.3108 15.4493 11.6196 15.372 11.866 15.1892C12.1123 15.0065 12.2759 14.7334 12.3209 14.43ZM18.4999 3.08337C9.98529 3.08337 3.08325 9.98542 3.08325 18.5C3.08325 27.0147 9.98529 33.9167 18.4999 33.9167C27.0145 33.9167 33.9166 27.0147 33.9166 18.5C33.9166 9.98542 27.0145 3.08337 18.4999 3.08337ZM5.39575 18.5C5.39575 15.0246 6.77637 11.6915 9.23387 9.234C11.6914 6.77649 15.0245 5.39587 18.4999 5.39587C21.9754 5.39587 25.3085 6.77649 27.766 9.234C30.2235 11.6915 31.6041 15.0246 31.6041 18.5C31.6041 21.9755 30.2235 25.3086 27.766 27.7661C25.3085 30.2236 21.9754 31.6042 18.4999 31.6042C15.0245 31.6042 11.6914 30.2236 9.23387 27.7661C6.77637 25.3086 5.39575 21.9755 5.39575 18.5Z" fill="#A87DFF"/>
</g>
</svg>
