<svg width="37" height="35" viewBox="0 0 37 35" fill="none" xmlns="http://www.w3.org/2000/svg">
<g id="fluent:call-add-16-filled" clip-path="url(#clip0_25_251)">
<path id="Vector" d="M27.75 3.28125C27.75 2.99117 27.8718 2.71297 28.0886 2.50785C28.3055 2.30273 28.5996 2.1875 28.9062 2.1875C29.2129 2.1875 29.507 2.30273 29.7238 2.50785C29.9406 2.71297 30.0625 2.99117 30.0625 3.28125V8.75H35.8437C36.1504 8.75 36.4445 8.86523 36.6613 9.07035C36.8781 9.27547 37 9.55367 37 9.84375C37 10.1338 36.8781 10.412 36.6613 10.6171C36.4445 10.8223 36.1504 10.9375 35.8437 10.9375H30.0625V16.4062C30.0625 16.6963 29.9406 16.9745 29.7238 17.1796C29.507 17.3848 29.2129 17.5 28.9062 17.5C28.5996 17.5 28.3055 17.3848 28.0886 17.1796C27.8718 16.9745 27.75 16.6963 27.75 16.4062V10.9375H21.9687C21.6621 10.9375 21.368 10.8223 21.1511 10.6171C20.9343 10.412 20.8125 10.1338 20.8125 9.84375C20.8125 9.55367 20.9343 9.27547 21.1511 9.07035C21.368 8.86523 21.6621 8.75 21.9687 8.75H27.75V3.28125ZM13.3107 15.3628L15.792 13.2103C16.4711 12.6206 16.9484 11.8524 17.1627 11.0042C17.377 10.1561 17.3184 9.26674 16.9945 8.45031L15.9377 5.775C15.542 4.77623 14.7587 3.95773 13.7472 3.48627C12.7358 3.0148 11.5724 2.92584 10.4941 3.2375C6.52583 4.38594 3.47564 7.875 4.41452 12.0181C5.20713 15.4619 6.56979 18.7656 8.45214 21.8072C10.6953 25.4538 13.2575 28.1509 15.4544 30.0431C18.7705 32.9 23.5111 32.1847 26.5613 29.4963C27.3796 28.775 27.8762 27.7856 27.9496 26.7299C28.0231 25.6742 27.668 24.6318 26.9568 23.8153L25.0143 21.5841C24.4281 20.9097 23.6421 20.4167 22.7573 20.1683C21.8725 19.92 20.9294 19.9278 20.0493 20.1906L16.8396 21.1466C16.0106 20.3382 15.2842 19.4411 14.6751 18.4734C14.0869 17.4935 13.6286 16.4488 13.3107 15.3628Z" fill="#A87DFF"/>
</g>
<defs>
<clipPath id="clip0_25_251">
<rect width="37" height="35" fill="white"/>
</clipPath>
</defs>
</svg>
