<svg width="44" height="44" viewBox="0 0 44 44" fill="none" xmlns="http://www.w3.org/2000/svg">
<g id="fluent:info-16-regular">
<path id="Vector" d="M22 19.25C22.3647 19.25 22.7144 19.3949 22.9723 19.6527C23.2301 19.9106 23.375 20.2603 23.375 20.625V28.875C23.375 29.2397 23.2301 29.5894 22.9723 29.8473C22.7144 30.1051 22.3647 30.25 22 30.25C21.6353 30.25 21.2856 30.1051 21.0277 29.8473C20.7699 29.5894 20.625 29.2397 20.625 28.875V20.625C20.625 20.2603 20.7699 19.9106 21.0277 19.6527C21.2856 19.3949 21.6353 19.25 22 19.25ZM22 17.1875C22.2709 17.1875 22.5391 17.1342 22.7893 17.0305C23.0395 16.9269 23.2669 16.7749 23.4584 16.5834C23.6499 16.3919 23.8018 16.1645 23.9055 15.9143C24.0092 15.6641 24.0625 15.3959 24.0625 15.125C24.0625 14.8541 24.0092 14.5859 23.9055 14.3357C23.8018 14.0855 23.6499 13.8581 23.4584 13.6666C23.2669 13.4751 23.0395 13.3231 22.7893 13.2195C22.5391 13.1158 22.2709 13.0625 22 13.0625C21.4537 13.0625 20.9298 13.2795 20.5435 13.6658C20.1573 14.0521 19.9402 14.576 19.9402 15.1223C19.9402 15.6685 20.1573 16.1924 20.5435 16.5787C20.9298 16.965 21.4537 17.182 22 17.182V17.1875ZM5.5 22C5.5 19.8332 5.92678 17.6876 6.75599 15.6857C7.58519 13.6839 8.80057 11.8649 10.3327 10.3327C11.8649 8.80057 13.6839 7.58519 15.6857 6.75599C17.6876 5.92679 19.8332 5.5 22 5.5C24.1668 5.5 26.3124 5.92679 28.3143 6.75599C30.3161 7.58519 32.1351 8.80057 33.6673 10.3327C35.1994 11.8649 36.4148 13.6839 37.244 15.6857C38.0732 17.6876 38.5 19.8332 38.5 22C38.5 26.3761 36.7616 30.5729 33.6673 33.6673C30.5729 36.7616 26.3761 38.5 22 38.5C17.6239 38.5 13.4271 36.7616 10.3327 33.6673C7.23839 30.5729 5.5 26.3761 5.5 22ZM22 8.25C18.3533 8.25 14.8559 9.69866 12.2773 12.2773C9.69866 14.8559 8.25 18.3533 8.25 22C8.25 25.6467 9.69866 29.1441 12.2773 31.7227C14.8559 34.3013 18.3533 35.75 22 35.75C25.6467 35.75 29.1441 34.3013 31.7227 31.7227C34.3013 29.1441 35.75 25.6467 35.75 22C35.75 18.3533 34.3013 14.8559 31.7227 12.2773C29.1441 9.69866 25.6467 8.25 22 8.25Z" fill="#A87DFF"/>
</g>
</svg>
