<svg width="47" height="47" viewBox="0 0 47 47" fill="none" xmlns="http://www.w3.org/2000/svg">
<g id="wpf:video-call" clip-path="url(#clip0_25_253)">
<path id="Vector" d="M16.3852 14C4.81918 14 0 15.5679 0 16.8331V38.1071C0 39.3434 4.81918 41 16.3852 41C27.9513 41 32.7705 39.4321 32.7705 38.1669V16.8929C32.7705 15.6566 27.9513 14 16.3852 14ZM48.9147 14.0598C48.5907 14.0727 48.2771 14.1777 48.0106 14.3626L35.4808 22.4375C34.9988 22.8001 34.6981 23.3979 34.6981 24.0054V30.9946C34.6981 31.6021 34.9988 32.198 35.4808 32.5625L48.0106 40.6394C48.3499 40.8959 50 41.7001 50 39.0714V15.9286C50 14.4108 49.4776 14.0366 48.9147 14.0598Z" fill="#A87DFF"/>
</g>
<defs>
<clipPath id="clip0_25_253">
<rect width="47" height="47" fill="white"/>
</clipPath>
</defs>
</svg>
