<svg width="25" height="23" viewBox="0 0 25 23" fill="none" xmlns="http://www.w3.org/2000/svg">
<path d="M20.7631 18.1223L24.1809 21.3087C24.3403 21.4626 24.4285 21.6688 24.4265 21.8828C24.4245 22.0968 24.3325 22.3015 24.1702 22.4528C24.008 22.6041 23.7885 22.69 23.5591 22.6918C23.3297 22.6937 23.1087 22.6114 22.9436 22.4627L19.5259 19.2747C17.2925 21.0596 14.4047 21.9682 11.4686 21.8099C8.53242 21.6516 5.77614 20.4387 3.77808 18.4256C1.78002 16.4126 0.695507 13.7559 0.752109 11.0131C0.808712 8.2703 2.00203 5.65454 4.08166 3.71471C6.16129 1.77489 8.96558 0.66179 11.9061 0.608993C14.8466 0.556195 17.6947 1.5678 19.8528 3.43154C22.011 5.29527 23.3113 7.86626 23.481 10.605C23.6508 13.3438 22.6767 16.0374 20.7631 18.1207V18.1223ZM12.1251 20.1954C14.6779 20.1954 17.126 19.2495 18.931 17.5658C20.7361 15.8821 21.7501 13.5985 21.7501 11.2175C21.7501 8.83635 20.7361 6.55278 18.931 4.86909C17.126 3.1854 14.6779 2.23951 12.1251 2.23951C9.57243 2.23951 7.12428 3.1854 5.31924 4.86909C3.5142 6.55278 2.50014 8.83635 2.50014 11.2175C2.50014 13.5985 3.5142 15.8821 5.31924 17.5658C7.12428 19.2495 9.57243 20.1954 12.1251 20.1954Z" fill="#90949D"/>
</svg>
