<svg width="46" height="42" viewBox="0 0 46 42" fill="none" xmlns="http://www.w3.org/2000/svg">
<path d="M44.2158 20.6582L24.1035 0.560547C23.9587 0.41545 23.7867 0.300335 23.5973 0.221793C23.408 0.143251 23.205 0.102823 23 0.102823C22.795 0.102823 22.592 0.143251 22.4027 0.221793C22.2133 0.300335 22.0413 0.41545 21.8965 0.560547L1.78418 20.6582C1.19824 21.2441 0.866211 22.04 0.866211 22.8701C0.866211 24.5937 2.26758 25.9951 3.99121 25.9951H6.11035V40.3359C6.11035 41.2002 6.80859 41.8984 7.67285 41.8984H19.875V30.9609H25.3438V41.8984H38.3271C39.1914 41.8984 39.8896 41.2002 39.8896 40.3359V25.9951H42.0088C42.8389 25.9951 43.6348 25.668 44.2207 25.0771C45.4365 23.8564 45.4365 21.8789 44.2158 20.6582Z" fill="#00095E"/>
</svg>
