<svg width="27" height="27" viewBox="0 0 27 27" fill="none" xmlns="http://www.w3.org/2000/svg">
<g id="carbon:settings-adjust">
<path id="Vector" d="M25.3125 6.75H21.8531C21.4312 4.80938 19.7437 3.375 17.7188 3.375C15.6938 3.375 14.0063 4.80938 13.5844 6.75H1.6875V8.4375H13.5844C14.0063 10.3781 15.6938 11.8125 17.7188 11.8125C19.7437 11.8125 21.4312 10.3781 21.8531 8.4375H25.3125V6.75ZM17.7188 10.125C16.2844 10.125 15.1875 9.02812 15.1875 7.59375C15.1875 6.15937 16.2844 5.0625 17.7188 5.0625C19.1531 5.0625 20.25 6.15937 20.25 7.59375C20.25 9.02812 19.1531 10.125 17.7188 10.125ZM1.6875 20.25H5.14687C5.56875 22.1906 7.25625 23.625 9.28125 23.625C11.3062 23.625 12.9937 22.1906 13.4156 20.25H25.3125V18.5625H13.4156C12.9937 16.6219 11.3062 15.1875 9.28125 15.1875C7.25625 15.1875 5.56875 16.6219 5.14687 18.5625H1.6875V20.25ZM9.28125 16.875C10.7156 16.875 11.8125 17.9719 11.8125 19.4062C11.8125 20.8406 10.7156 21.9375 9.28125 21.9375C7.84688 21.9375 6.75 20.8406 6.75 19.4062C6.75 17.9719 7.84688 16.875 9.28125 16.875Z" fill="#3F4043"/>
</g>
</svg>
